<svg xmlns="http://www.w3.org/2000/svg" viewBox="0 0 16 16"><path style="stroke:none;fill-rule:evenodd;fill:#ffc800;fill-opacity:1" d="M7.79.07c-.353.102-.54.223-.903.578L6.539.98 6.32.828C5.59.308 4.72.086 4.262.301 3.234.789 2.477 3.039 2.109 6.695c-.062.64-.062 1.614.004 1.348.32-1.3.657-2.027 1.223-2.629 1.047-1.117 2.723-1.23 4.64-.324l.278.133.008.75-.11-.02c-1.41-.254-2.464-.195-3.402.188-1.105.449-1.98 1.367-2.45 2.562l-.093.235.074.335c.192.848.668 1.938 1.051 2.403l.082.101.168-.3c1.11-1.993 3.04-3.754 4.86-4.426l.18-.067.046.09c.082.16.352.406.55.5l.188.09-.02.156c-.027.262-.25.89-.46 1.332-.805 1.657-2.278 2.953-4.106 3.61a2 2 0 0 0-.277.113c-.063.055.988.73 1.453.938 1.649.734 3.121.539 4.195-.555 1.094-1.113 1.196-2.547.34-4.778-.238-.613-.238-.593.02-.632l.203-.032.246.399c1.5 2.45 1.719 3.476 1.008 4.687-1.063 1.809-4.613 2.375-7.14 1.141C1.983 12.637.69 9.219 1.624 5.477c.055-.227.098-.418.094-.422a8 8 0 0 0-.399.379C.38 6.379 0 7.398 0 9.008c0 2.562 1.184 4.758 3.27 6.062 1.953 1.22 4.476 1.235 5.73.035l.234-.226.422-.004c2.192-.027 3.707-.82 3.957-2.07l.04-.2.14-.007c1.41-.078 2.09-.516 2.195-1.41.094-.77-.496-1.774-1.32-2.25L14.5 8.84l.137-.11c.547-.445.851-.94.847-1.378-.007-1.047-1.21-1.637-3.328-1.637h-.586l-.148-.29c-.168-.32-.422-.624-.625-.741l-.133-.082-.02-.372c-.05-1.003-.152-1.652-.347-2.242C9.812.512 8.836-.23 7.789.07m7.879.328c-1.18.606-2.762.61-3.844.008l-.133-.074.079.133c.703 1.156.757 2.71.14 3.95-.05.105-.094.194-.094.202a.8.8 0 0 0 .184-.11c1.082-.73 2.18-.792 3.492-.198.168.078.313.136.317.128a2 2 0 0 0-.114-.324c-.3-.75-.457-1.515-.425-2.074.03-.547.132-.828.496-1.418.125-.2.218-.363.21-.367a3 3 0 0 0-.308.144M8.125.637c-.219.11-.785.812-.785.972 0 .106 1.02 1.371 1.574 1.957.281.297.305.293.305-.101 0-1.078-.543-2.762-.926-2.863-.035-.012-.11.003-.168.035M4.348.723c-.403.242-.692 1.16-.782 2.457l-.023.328.2-.176c.605-.535 1.35-.785 2.335-.785.16 0 .29-.008.29-.016a5 5 0 0 0-.212-.363C5.414.945 4.796.449 4.348.723m8.156 6.054c-.32.024-.324.028-.297.211.125.977 1.813 1.766 2.297 1.078.164-.234.21-.714.09-.898-.2-.3-1.07-.461-2.09-.39m.328 2.663c.016.032.14.407.281.836.457 1.375.614 1.614 1.043 1.614.528 0 .996-.348.934-.692-.102-.547-.793-1.172-1.8-1.62-.442-.2-.49-.216-.458-.138"/></svg>
